<svg id="Capa_1" data-name="Capa 1" xmlns="http://www.w3.org/2000/svg" viewBox="0 0 134.24819 123.72187"><defs><style>.cls-1{fill:#42b9cb;}.cls-1,.cls-2,.cls-3,.cls-5{fill-rule:evenodd;}.cls-2{fill:#40b9c9;}.cls-3{fill:#35b6c1;}.cls-4{fill:#f2aa3d;}.cls-5{fill:#010202;}</style></defs><path class="cls-1" d="M102.03427,82.48133a38.69339,38.69339,0,0,1,.1973,5.6192,43.60237,43.60237,0,0,1-.46,4.7969,25.65821,25.65821,0,0,1-3.5,9.7646,38.76113,38.76113,0,0,1-4.57229,5.6631,68.9174,68.9174,0,0,1-10.0175,8.9258,37.24323,37.24323,0,0,1-10.5079,5.5674,17.56683,17.56683,0,0,1-6.6289.8623,14.03627,14.03627,0,0,1-4.3916-1.1739,23.79155,23.79155,0,0,1-6.895-4.5517c-.1074-.0987-.3086-.1748-.2656-.3438.0376-.1435.2422-.125.3711-.1601a49.14221,49.14221,0,0,0,12.6753-5.4307,50.50665,50.50665,0,0,0,8.1601-6.3203c1.8955-1.7852,3.6778-3.6777,5.3946-5.6328a1.3617,1.3617,0,0,1,.5117-.3574,39.00446,39.00446,0,0,0,12.9824-9.042c1.8809-2,3.58009-4.1504,5.28519-6.2959q.7734-.97275,1.55071-1.9385C101.96007,82.44913,101.99717,82.46473,102.03427,82.48133Z"/><path class="cls-1" d="M79.10748,4.53263c-1.1103.4502-2.2099.8775-3.2949,1.3384A65.0128,65.0128,0,0,0,60.923,14.789a91.066,91.066,0,0,0-8.898,8.1577,2.04856,2.04856,0,0,1-.7617.5097,36.29458,36.29458,0,0,0-12.0601,7.6973,59.6822,59.6822,0,0,0-7.9214,9.4214c-.1035.1489-.2075.2964-.3125.4463-.0419-.0357-.0771-.0513-.0776-.0679a35.2459,35.2459,0,0,1,1.6738-12.9385,33.80444,33.80444,0,0,1,6.9478-11.8217,51.2259,51.2259,0,0,1,15.7881-11.5826A76.96885,76.96885,0,0,1,66.57728.12639a5.23946,5.23946,0,0,1,2.3515.03223,25.08267,25.08267,0,0,1,10.0899,4.27291A.67359.67359,0,0,1,79.10748,4.53263Z"/><path class="cls-1" d="M15.31548,44.11613c.0611.7798.0245,1.4829.0874,2.1846a30.46187,30.46187,0,0,0,1.0088,5.3877,77.5085,77.5085,0,0,0,6.1348,14.876c2.7856,5.4003,5.9453,10.5849,9.2183,15.7001.1601.25.3198.501.4721.7549.0537.0879.1709.17.083.2979-.0879.1289-.2246.1103-.3471.0869-.4146-.082-.8277-.167-1.2398-.2598a83.42776,83.42776,0,0,1-16.7153-5.332,32.83769,32.83769,0,0,1-9.93995-6.5879,14.62728,14.62728,0,0,1-3.79395-6.1777,8.34659,8.34659,0,0,1,.41455-5.4126,21.78667,21.78667,0,0,1,4.625-7.2315,57.08486,57.08486,0,0,1,8.03275-6.8203C13.98988,45.11123,14.62018,44.63663,15.31548,44.11613Z"/><path class="cls-1" d="M104.19047,43.63713a22.95245,22.95245,0,0,1,2.5547.2764,50.26824,50.26824,0,0,1,15.0362,4.8623,32.88813,32.88813,0,0,1,7.9179,5.4043,14.83151,14.83151,0,0,1,4.4082,6.8603,4.7484,4.7484,0,0,1-.3847,3.2476,20.43876,20.43876,0,0,1-3.0996,4.7881,64.1756,64.1756,0,0,1-11.7461,11.084,8.1852,8.1852,0,0,1-1.4483.873c-.0674-.5644-.1347-1.1006-.1982-1.6367a44.59432,44.59432,0,0,0-1.833-8.1172,121.98656,121.98656,0,0,0-5.01469-12.6655c-2.10941-4.7759-4.28511-9.524-6.01851-14.4571C104.30867,43.99843,104.25788,43.83883,104.19047,43.63713Z"/><path class="cls-1" d="M34.732,103.59273c-2.8613.1797-5.812.0517-8.7612.0976a.63065.63065,0,0,1-.6269-.3496q-1.93665-3.19035-3.898-6.3662c-1.2192-1.9766-2.4536-3.9414-3.6714-5.918-1.2685-2.0605-2.5239-4.1269-3.7876-6.1904-.1884-.3076-.3916-.6074-.5815-.915-.0415-.0684-.0938-.1758-.0669-.2276.0517-.0986.1728-.0615.2651-.0381q2.2185.55665,4.4361,1.1172,3.76965.95655,7.539,1.9161,5.4426,1.3812,10.8867,2.7597a2.21126,2.21126,0,0,0,.2862.0557,2.77453,2.77453,0,0,1,1.7036.9853,28.78834,28.78834,0,0,0,5.5,4.583c1.2685.8067,2.5796,1.5381,3.9087,2.2432,1.8594.9863,3.7729,1.8516,5.7016,2.6895.0821.0351.1705.0664.1802.1513.0137.127-.1118.0899-.1816.1172a42.386,42.386,0,0,1-4.1094,1.3486c-1.4165.3995-2.8545.7041-4.2964.9834-.8594.1661-1.7363.2383-2.602.3731-1.3106.2051-2.6363.2588-3.9522.4131-.4717.0556-.9541.0566-1.4267.0693C36.39018,103.51263,35.60748,103.63953,34.732,103.59273Z"/><path class="cls-2" d="M120.503,43.49263a52.269,52.269,0,0,0-7.8388-2.8247c-3.6221-1.0279-7.3028-1.8169-10.9805-2.6143a2.001,2.001,0,0,1-1.2471-.8804,43.59674,43.59674,0,0,0-7.90329-7.875,45.03572,45.03572,0,0,0-9.4473-5.8466,1.424,1.424,0,0,1-.1367-.0928,15.74314,15.74314,0,0,1,2.3653-.8228,53.299,53.299,0,0,1,9.164-1.7768,37.23225,37.23225,0,0,1,8.70409.1279c.5596.0767,1.11921.1548,1.6817.1934a1.48142,1.48142,0,0,1,1.0166.6142,45.84071,45.84071,0,0,1,2.8974,3.6485c3.6133,4.935,7.06351,9.9814,10.2207,15.2231a23.01679,23.01679,0,0,1,1.1953,2.1924C120.28817,42.95943,120.36627,43.16693,120.503,43.49263Z"/><path class="cls-2" d="M89.20618,7.49553a14.36831,14.36831,0,0,1,4.9609,1.3501,16.948,16.948,0,0,1,6.26759,4.6626,7.60067,7.60067,0,0,1,1.1865,2.0425c.1182.3042.0264.3535-.2607.3506-1.93659-.0201-3.8721.0424-5.80369.1645a51.315,51.315,0,0,0-13.3311,2.3843c-2.1104.7153-4.1807,1.5483-6.2666,2.3345a1.20671,1.20671,0,0,1-.7373.0439,29.33423,29.33423,0,0,0-8.1094-.7744,44.76452,44.76452,0,0,0-5.6123.7817c-.1465.0259-.3237.1729-.4331-.0659-.1064-.2324.082-.3315.2144-.4472a46.25293,46.25293,0,0,1,7.5703-5.3428,67.14382,67.14382,0,0,1,19.8974-7.437A4.13393,4.13393,0,0,1,89.20618,7.49553Z"/><path class="cls-3" d="M25.71588,63.07023a17.66931,17.66931,0,0,1-1.2104-2.646,105.23654,105.23654,0,0,1-3.7266-12.3022,39.20891,39.20891,0,0,1-1.1694-11.5454,25.22543,25.22543,0,0,1,8.6811-18.1734,37.55031,37.55031,0,0,1,5.3413-3.9507c.1026-.0634.2085-.1225.4224-.2475-.5434.9311-1.0181,1.7583-1.5054,2.5781a58.43764,58.43764,0,0,0-4.601,9.189,31.454,31.454,0,0,0-2.1665,11.58,46.10744,46.10744,0,0,0,.5288,5.2212c.2646,2.085.542,4.168.8144,6.2525a5.831,5.831,0,0,0,.0864.6279,9.27873,9.27873,0,0,1-.3544,3.9649A54.49023,54.49023,0,0,0,25.71588,63.07023Z"/><path class="cls-1" d="M107.87507,64.81443c.2695.7324.5254,1.4277.7813,2.123.7568,2.0508,1.5312,4.0947,2.2636,6.1523a48.51326,48.51326,0,0,1,1.6202,6.2969,43.54191,43.54191,0,0,1,.8134,5.4268c.3408,4.2217.15731,8.3789-1.625,12.3203a16.73449,16.73449,0,0,1-6.0771,7.1269c-1.3965.9336-2.8145,1.8379-4.2237,2.7539-.1406.0928-.2851.1817-.4716.2999a.86518.86518,0,0,1,.1728-.4444,39.11982,39.11982,0,0,0,4.9248-11.998,35.68583,35.68583,0,0,0,.9707-9.0576,58.304,58.304,0,0,0-.7217-6.8067c-.1904-1.1816-.4248-2.3633-.499-3.5517a8.29528,8.29528,0,0,1,.32811-1.9913q.78673-4.10445,1.57909-8.2089A.87749.87749,0,0,1,107.87507,64.81443Z"/><path class="cls-1" d="M74.12118,101.91693a8.78367,8.78367,0,0,1-1.4434,1.2812c-1.4082,1.1114-2.8418,2.1934-4.3437,3.1768-1.4673.959-2.9668,1.8613-4.5195,2.6816a35.24507,35.24507,0,0,1-5.7857,2.461,27.8516,27.8516,0,0,1-4.0967.9189,35.3206,35.3206,0,0,1-7.1479.2989,24.33091,24.33091,0,0,1-8.0737-1.7344,18.2557,18.2557,0,0,1-3.9117-2.1328,6.55687,6.55687,0,0,1-.9882-.8409c-.045-.0488-.1104-.1259-.0977-.1699.0234-.0849.1177-.1064.209-.1025.0986.0039.1977-.001.2969.001,1.3925.0254,2.7773-.1338,4.1674-.1807,1.0889-.0361,2.1783-.1299,3.2608-.252,1.2466-.1406,2.4966-.2382,3.7417-.3945,1.0088-.126,2.0215-.2334,3.0298-.3672,1.1152-.1474,2.2299-.3154,3.3364-.5205q2.4126-.4467,4.7856-1.084a70.52318,70.52318,0,0,0,7.0567-2.2431,3.57175,3.57175,0,0,1,1.0967-.2276c1.5224-.083,3.0454-.1621,4.562-.3232.4316-.0459.8652-.0293,1.3008-.0723,1.1152-.1084,2.2392-.1308,3.3593-.1865A1.8262,1.8262,0,0,1,74.12118,101.91693Z"/><circle class="cls-4" cx="67.12409" cy="60.86094" r="36.511"/><path class="cls-5" d="M54.60192,86.23569c-3.94284,0-7.25552-.00823-10.56889.00823-.46667.00265-.57967-.07491-.48983-.58315q3.01029-17.011,5.97831-34.03163c.90458-5.158,1.82089-10.31471,2.70845-15.47548.09055-.52735.27247-.68332.81879-.67649q3.87372.05316,7.74869.0021c.53684-.00614.60562.16141.53823.63212-.63351,4.40532-1.26033,8.81064-2.056,13.19085-1.07633,5.92711-2.10354,11.86523-3.14987,17.79708-.57088,3.23706-1.12948,6.47831-1.72,9.71118-.07771.42509.02385.49052.41141.48787,2.859-.01367,5.71937.01214,8.57836-.011,7.14392-.05846,12.22838-3.3855,15.09755-9.87874A22.84593,22.84593,0,0,0,79.6647,51.58282c-1.22476-4.31534-4.38551-6.731-8.87872-7.09676a23.17287,23.17287,0,0,0-2.5995-.08175c-.38966.01088-.50685-.0844-.43876-.49038.44559-2.64107.8665-5.2848,1.30247-7.92727.03962-.23423.01911-.49247.41964-.50265a23.63083,23.63083,0,0,1,10.55872,1.8467A16.50067,16.50067,0,0,1,89.718,49.00592c2.61847,11.3549.28613,21.49941-8.32152,29.72425a27.10611,27.10611,0,0,1-16.48652,7.32025C61.27024,86.41287,57.61758,86.15129,54.60192,86.23569Z"/></svg>